<svg height="100" width="236" xmlns="http://www.w3.org/2000/svg"><g fill="none"><path d="M200.808 66.996c-4.905 0-8.83-1.517-11.665-4.504a14.192 14.192 0 0 1-3.04-4.972c-1.29.71-2.69 1.202-4.14 1.455v2.747a4.968 4.968 0 0 1-4.96 4.968h-27.571a4.927 4.927 0 0 1-3.063-1.064 20.75 20.75 0 0 1-7.633 1.37 16.405 16.405 0 0 1-8.285-2.043 4.948 4.948 0 0 1-3.762 1.733h-6.617a4.96 4.96 0 0 1-4.75-3.54 4.968 4.968 0 0 1-4.752 3.54h-6.64a4.974 4.974 0 0 1-3.476-1.408 13.435 13.435 0 0 1-6.91 1.718c-1.407.005-2.81-.14-4.187-.433a4.96 4.96 0 0 1-3.001-2c-2.5 1.617-5.597 2.433-9.24 2.433-3.232 0-6.037-.658-8.385-1.962a4.944 4.944 0 0 1-3.604 1.652h-6.953a4.966 4.966 0 0 1-3.136-1.122 4.931 4.931 0 0 1-3.136 1.122h-6.03a4.967 4.967 0 0 1-4.48-2.836c-2.527 2.086-5.84 3.142-9.87 3.142-3.638 0-6.69-.874-9.104-2.6a4.958 4.958 0 0 1-4.175 2.29H4.96A4.968 4.968 0 0 1 0 61.716V39.316a4.968 4.968 0 0 1 4.96-4.968H53.2c5.407 0 9.505 1.64 11.838 4.593l.386-.445C68.271 35.509 72.211 34 77.16 34s8.884 1.509 11.704 4.488a13.539 13.539 0 0 1 1.618 2.09v-1.355a4.968 4.968 0 0 1 4.96-4.968h6.075a4.97 4.97 0 0 1 4.844 3.904l.155-.472a4.945 4.945 0 0 1 4.716-3.432h8.061a4.949 4.949 0 0 1 4.712 3.417l1.356 4.148a14.243 14.243 0 0 1 5.504-5.711 16.282 16.282 0 0 1 8.255-2.082 20.827 20.827 0 0 1 7.339 1.323 4.927 4.927 0 0 1 2.981-1.002h6.05c1.204 0 2.368.44 3.27 1.238a4.95 4.95 0 0 1 3.276-1.238h6.61c.39 0 .778.045 1.158.136.38-.091.769-.137 1.159-.136h7.725c4.044 0 7.281 1.033 9.622 3.076.332.29.647.6.942.929 2.816-2.89 6.71-4.353 11.588-4.353 3.642 0 6.729.813 9.224 2.422a4.953 4.953 0 0 1 4.025-2.07h16.952A4.971 4.971 0 0 1 236 39.32v4.949a4.971 4.971 0 0 1-4.96 4.968h-.486v12.49a4.968 4.968 0 0 1-4.96 4.967h-6.045a4.968 4.968 0 0 1-4.963-4.972v-2.089a13.7 13.7 0 0 1-2.067 2.863c-2.808 2.987-6.748 4.5-11.711 4.5z" fill="#2d0000"/><path d="M19.188 39.418v4.81a.805.805 0 0 1-.24.573.817.817 0 0 1-.577.236h-6.408v1.869h5.875c.45 0 .816.36.818.808v4.825a.815.815 0 0 1-.818.812h-5.875v2.566h6.411a.817.817 0 0 1 .58.237c.153.152.24.36.238.575v4.887c0 .215-.086.421-.24.573s-.361.236-.578.235H5.11a.815.815 0 0 1-.818-.808V39.418c0-.448.366-.811.818-.811H18.37a.82.82 0 0 1 .578.237c.153.153.24.36.24.574zm66.699 1.992c1.971 2.08 2.974 5.128 2.974 9.065s-1.007 6.978-2.99 9.065c-1.982 2.087-4.918 3.167-8.69 3.167s-6.631-1.068-8.652-3.178-3.029-5.155-3.029-9.085 1.015-6.92 3.013-9.015 4.938-3.17 8.699-3.17 6.692 1.064 8.679 3.155zm-5.015 9.065c0-2.034-.328-3.527-.976-4.442-.59-.835-1.47-1.241-2.7-1.241-1.597 0-3.722.59-3.722 5.683 0 5.094 2.106 5.622 3.691 5.622 1.258 0 2.153-.383 2.731-1.218.656-.896.976-2.378.976-4.4zm-15.14 10.586c.213.238.265.579.132.87a.814.814 0 0 1-.745.474h-6.851a.815.815 0 0 1-.706-.402l-4.502-7.66h-.231v7.277a.805.805 0 0 1-.24.573.817.817 0 0 1-.578.235h-6.045a.815.815 0 0 1-.817-.808V39.418c0-.448.366-.811.817-.811h7.33c4.524 0 9.92 1.279 9.92 7.364 0 2.6-1.156 4.688-3.47 6.212zM52.829 48.21h.316c2.064 0 2.345-.945 2.345-1.964 0-.483 0-1.482-2.283-1.482h-.386zm-11.542-9.6h-6.044a.82.82 0 0 0-.578.237.809.809 0 0 0-.24.574V52.41c0 1.387-.227 2.405-.66 2.953-.432.548-1.06.743-2.04.743-.903 0-1.543-.253-1.983-.766-.44-.513-.698-1.532-.698-2.895V39.422a.815.815 0 0 0-.818-.812h-6.064a.82.82 0 0 0-.578.238.809.809 0 0 0-.24.574v13.5c0 3.118.91 5.561 2.7 7.277 1.79 1.716 4.337 2.543 7.584 2.543 3.322 0 5.922-.88 7.715-2.62s2.731-4.212 2.731-7.322V39.418a.815.815 0 0 0-.798-.808zm54.182-.093a.817.817 0 0 0-.577.239.805.805 0 0 0-.237.573v13.956c0 1.578-.266 2.298-.49 2.593-.096.138-.386.555-1.474.555a5.096 5.096 0 0 1-1.026-.095 54.155 54.155 0 0 0-1.057-.207.818.818 0 0 0-.67.173.806.806 0 0 0-.294.623v4.657c0 .382.269.712.644.793a15.75 15.75 0 0 0 3.306.337c2.885 0 5.1-.873 6.58-2.596 1.482-1.724 2.18-4.156 2.18-7.346V39.327a.805.805 0 0 0-.24-.575.817.817 0 0 0-.581-.234zm31.95 22.723c.116.25.096.54-.052.771s-.404.374-.68.378h-6.62a.813.813 0 0 1-.77-.606l-.942-3.55h-6.022l-.968 3.558a.813.813 0 0 1-.771.598h-6.647a.82.82 0 0 1-.656-.337.807.807 0 0 1-.115-.724l7.287-22.27a.813.813 0 0 1 .771-.56h8.05c.351.001.662.225.772.556zm-11.456-12.148c-.177-.64-.385-1.456-.636-2.425a365.273 365.273 0 0 1-1.304 5.048h2.635zM230.887 38.61h-16.93a.82.82 0 0 0-.578.238.809.809 0 0 0-.24.574v4.899a.815.815 0 0 0 .818.808h4.63v16.468a.815.815 0 0 0 .817.808h6.044a.815.815 0 0 0 .814-.808V45.129h4.63c.45 0 .815-.361.817-.808v-4.903a.81.81 0 0 0-.244-.574.82.82 0 0 0-.581-.234zm-42.975 7.863c0 2.7-.83 4.833-2.469 6.334-1.64 1.502-3.919 2.24-6.827 2.24h-.88v6.55a.815.815 0 0 1-.818.808h-6.052a.815.815 0 0 1-.818-.808V39.418c0-.448.366-.811.818-.811h7.715c3.012 0 5.33.685 6.893 2.033 1.562 1.348 2.438 3.344 2.438 5.833zm-10.176 2.072h.285c.585.04 1.16-.154 1.601-.536.39-.402.589-.95.548-1.505 0-.862-.285-1.437-1.69-1.437h-.74zm31.666-7.135c1.97 2.08 2.974 5.128 2.974 9.065s-1.007 6.978-2.986 9.065c-1.979 2.087-4.918 3.167-8.69 3.167s-6.632-1.068-8.653-3.178-3.051-5.151-3.051-9.08 1.014-6.921 3.013-9.016 4.937-3.171 8.698-3.171 6.708 1.06 8.695 3.152zm-5.015 9.065c0-2.034-.328-3.527-.976-4.442-.59-.835-1.47-1.241-2.7-1.241-1.597 0-3.723.59-3.723 5.683 0 5.094 2.107 5.622 3.692 5.622 1.258 0 2.152-.383 2.731-1.218.652-.896.976-2.378.976-4.4zm-35.064-11.428a.815.815 0 0 0-.725-.437h-6.604a.82.82 0 0 0-.671.353l-4.683 6.786-.386.517v-6.848a.815.815 0 0 0-.818-.811h-6.048a.815.815 0 0 0-.814.811v22.179a.815.815 0 0 0 .814.808h6.048c.217 0 .425-.084.578-.235s.24-.358.24-.573v-6.959l.644-.383 4.02 7.713c.14.27.42.438.725.437h6.824c.309-.001.59-.175.729-.45s.108-.603-.077-.848l-6.62-11.708 6.762-9.498a.803.803 0 0 0 .062-.854zm-22.956.885a16.869 16.869 0 0 0-7.27-1.643 12.271 12.271 0 0 0-6.173 1.512 10.148 10.148 0 0 0-4.104 4.355 14.207 14.207 0 0 0-1.392 6.415c0 3.864.98 6.893 2.912 8.965s4.76 3.175 8.355 3.175a16.45 16.45 0 0 0 6.654-1.298.812.812 0 0 0 .486-.74v-5.07a.81.81 0 0 0-.355-.684.823.823 0 0 0-.771-.082c-.883.365-1.785.684-2.7.958a9.35 9.35 0 0 1-2.643.383c-1.755 0-4.089-.579-4.089-5.592 0-1.876.36-3.347 1.065-4.373a3.057 3.057 0 0 1 2.7-1.398 7.941 7.941 0 0 1 2.411.356c.811.261 1.605.573 2.376.934a.823.823 0 0 0 1.107-.44l1.848-4.718a.81.81 0 0 0-.424-1.015z" fill="#eac837"/></g></svg>
